<?xml version="1.0" encoding="utf-8"?>
<!-- Generator: Adobe Illustrator 25.0.0, SVG Export Plug-In . SVG Version: 6.00 Build 0)  -->
<svg version="1.1" id="Capa_1" xmlns="http://www.w3.org/2000/svg" xmlns:xlink="http://www.w3.org/1999/xlink" x="0px" y="0px"
	 viewBox="0 0 209.8 209.8" style="enable-background:new 0 0 209.8 209.8;" xml:space="preserve">
<style type="text/css">
	.st0{fill:white;}

</style>
<g>
	<path id="_Path_8" class="st0" d="M200.8,107.1c-3.5-6.6-11.7-9.1-18.3-5.6c-1.7,0.9-3.2,2.2-4.4,3.8l-32.5-43.9
		c-2.2-2.5-6.1-2.7-8.5-0.4c-1.7,1.5-2.4,3.8-1.8,6l18.3,51.6c-2,0.1-3.9,0.6-5.6,1.5c-6.1,4.3-7.6,12.7-3.3,18.8
		c3.5,4.9,9.8,7,15.5,5c8,8.3,21.2,8.6,29.6,0.6c5.2-5,7.5-12.4,6-19.4C201.9,121.5,204.2,113.6,200.8,107.1z"/>
	<path id="_Path_8_1_" class="st0" d="M14.2,125.2c-1.5,7.1,0.7,14.4,6,19.4c8.3,8,21.6,7.8,29.6-0.6c5.7,2,12-0.1,15.5-5
		c4.3-6.1,2.8-14.5-3.3-18.8c-1.7-0.9-3.7-1.5-5.6-1.5L74.6,67c0.6-2.2-0.1-4.5-1.8-6c-2.5-2.2-6.3-2-8.5,0.4l-32.5,43.9
		c-1.2-1.6-2.7-2.9-4.4-3.8c-6.6-3.5-14.8-1-18.3,5.6C5.7,113.6,7.9,121.5,14.2,125.2z"/>
</g>
</svg>
