<?xml version="1.0" encoding="utf-8"?>
<!-- Generator: Adobe Illustrator 25.0.0, SVG Export Plug-In . SVG Version: 6.00 Build 0)  -->
<svg version="1.1" xmlns="http://www.w3.org/2000/svg" xmlns:xlink="http://www.w3.org/1999/xlink" x="0px" y="0px"
	 viewBox="0 0 500 500" style="enable-background:new 0 0 500 500;" xml:space="preserve">
<style type="text/css">
	.st0{fill:#F9FBFC;}
	.st1{display:none;}
	.st2{fill:#F28B37}
	.st3{fill:none;stroke:#000000;stroke-width:17.211;stroke-miterlimit:10;}
	.st4{clip-path:url(#SVGID_2_);}
</style>
<symbol  id="Nuevo_símbolo_1" viewBox="-16 -32.5 32 65.1">
	<path class="st0" d="M-3.5-21.9c0-0.2-0.2-0.4-0.4-0.4c-0.2,0-0.4,0.2-0.4,0.4c0,0.2,0.2,0.4,0.4,0.4C-3.7-21.6-3.5-21.7-3.5-21.9z
		"/>
	<path class="st0" d="M-1.3-17.6c0-0.2-0.2-0.4-0.4-0.4C-1.9-18-2-17.8-2-17.6c0,0.2,0.2,0.4,0.4,0.4C-1.5-17.2-1.3-17.4-1.3-17.6z"
		/>
	<path class="st0" d="M2-20.6c0-0.2-0.2-0.4-0.4-0.4c-0.2,0-0.4,0.2-0.4,0.4c0,0.2,0.2,0.4,0.4,0.4C1.8-20.2,2-20.4,2-20.6z"/>
	<path class="st0" d="M3.7-20c0-0.2-0.2-0.4-0.4-0.4c-0.2,0-0.4,0.2-0.4,0.4c0,0.2,0.2,0.4,0.4,0.4C3.5-19.6,3.7-19.8,3.7-20z"/>
	<path class="st0" d="M8.8-21.9c0-0.2-0.2-0.4-0.4-0.4c-0.2,0-0.4,0.2-0.4,0.4c0,0.2,0.2,0.4,0.4,0.4C8.6-21.6,8.8-21.7,8.8-21.9z"
		/>
	<path class="st0" d="M-0.1-12.6c0-0.2-0.2-0.4-0.4-0.4c-0.2,0-0.4,0.2-0.4,0.4c0,0.2,0.2,0.4,0.4,0.4C-0.3-12.2-0.1-12.4-0.1-12.6z
		"/>
	<path class="st0" d="M-2.4-10.6c0-0.2-0.2-0.4-0.4-0.4c-0.2,0-0.4,0.2-0.4,0.4c0,0.2,0.2,0.4,0.4,0.4C-2.6-10.2-2.4-10.4-2.4-10.6z
		"/>
	<path class="st0" d="M-5.5-18c0-0.2-0.2-0.4-0.4-0.4c-0.2,0-0.4,0.2-0.4,0.4c0,0.2,0.2,0.4,0.4,0.4C-5.7-17.6-5.5-17.7-5.5-18z"/>
	<path class="st0" d="M-6.6-22.3c0-0.2-0.2-0.4-0.4-0.4c-0.2,0-0.4,0.2-0.4,0.4c0,0.2,0.2,0.4,0.4,0.4C-6.7-22-6.6-22.1-6.6-22.3z"
		/>
	<path class="st0" d="M-0.1-25.4c0-0.2-0.2-0.4-0.4-0.4c-0.2,0-0.4,0.2-0.4,0.4c0,0.2,0.2,0.4,0.4,0.4C-0.3-25-0.1-25.2-0.1-25.4z"
		/>
	<path class="st0" d="M-0.5-21.6c0-0.2-0.2-0.4-0.4-0.4c-0.2,0-0.4,0.2-0.4,0.4c0,0.2,0.2,0.4,0.4,0.4C-0.7-21.2-0.5-21.4-0.5-21.6z
		"/>
	<path class="st0" d="M4-23.5c0-0.2-0.2-0.4-0.4-0.4c-0.2,0-0.4,0.2-0.4,0.4c0,0.2,0.2,0.4,0.4,0.4C3.9-23.1,4-23.3,4-23.5z"/>
	<path class="st0" d="M7-17.2c0-0.2-0.2-0.4-0.4-0.4c-0.2,0-0.4,0.2-0.4,0.4c0,0.2,0.2,0.4,0.4,0.4C6.9-16.8,7-17,7-17.2z"/>
	<path class="st0" d="M4-15.4c0-0.2-0.2-0.4-0.4-0.4c-0.2,0-0.4,0.2-0.4,0.4c0,0.2,0.2,0.4,0.4,0.4C3.9-15.1,4-15.2,4-15.4z"/>
	<path class="st0" d="M0.6-16.2c0-0.2-0.2-0.4-0.4-0.4c-0.2,0-0.4,0.2-0.4,0.4c0,0.2,0.2,0.4,0.4,0.4C0.5-15.8,0.6-16,0.6-16.2z"/>
	<path class="st0" d="M5.5-23.8c0-0.2-0.2-0.4-0.4-0.4c-0.2,0-0.4,0.2-0.4,0.4c0,0.2,0.2,0.4,0.4,0.4C5.4-23.5,5.5-23.6,5.5-23.8z"
		/>
	<path class="st0" d="M-2-21.6c0-0.2-0.2-0.4-0.4-0.4c-0.2,0-0.4,0.2-0.4,0.4c0,0.2,0.2,0.4,0.4,0.4C-2.2-21.2-2-21.4-2-21.6z"/>
	<path class="st0" d="M-3.9-23.5c0-0.2-0.2-0.4-0.4-0.4c-0.2,0-0.4,0.2-0.4,0.4c0,0.2,0.2,0.4,0.4,0.4C-4.1-23.1-3.9-23.3-3.9-23.5z
		"/>
	<path class="st0" d="M7-18.9c0-0.2-0.2-0.4-0.4-0.4c-0.2,0-0.4,0.2-0.4,0.4c0,0.2,0.2,0.4,0.4,0.4C6.9-18.5,7-18.7,7-18.9z"/>
	<path class="st0" d="M8.8-16.2c0-0.2-0.2-0.4-0.4-0.4c-0.2,0-0.4,0.2-0.4,0.4c0,0.2,0.2,0.4,0.4,0.4C8.6-15.8,8.8-16,8.8-16.2z"/>
	<path class="st0" d="M7-22.7c0-0.2-0.2-0.4-0.4-0.4c-0.2,0-0.4,0.2-0.4,0.4c0,0.2,0.2,0.4,0.4,0.4C6.9-22.3,7-22.5,7-22.7z"/>
	<path class="st0" d="M3.1-22c0-0.2-0.2-0.4-0.4-0.4c-0.2,0-0.4,0.2-0.4,0.4c0,0.2,0.2,0.4,0.4,0.4C2.9-21.6,3.1-21.8,3.1-22z"/>
	<path class="st0" d="M-3.9-26.9c0-0.2-0.2-0.4-0.4-0.4c-0.2,0-0.4,0.2-0.4,0.4c0,0.2,0.2,0.4,0.4,0.4C-4.1-26.5-3.9-26.7-3.9-26.9z
		"/>
	<path class="st0" d="M-3.5-18.9c0-0.2-0.2-0.4-0.4-0.4c-0.2,0-0.4,0.2-0.4,0.4c0,0.2,0.2,0.4,0.4,0.4C-3.7-18.5-3.5-18.7-3.5-18.9z
		"/>
	<path class="st0" d="M3.7-18c0-0.2-0.2-0.4-0.4-0.4c-0.2,0-0.4,0.2-0.4,0.4c0,0.2,0.2,0.4,0.4,0.4C3.5-17.6,3.7-17.7,3.7-18z"/>
	<path class="st0" d="M6.7-21.2c0-0.2-0.2-0.4-0.4-0.4c-0.2,0-0.4,0.2-0.4,0.4c0,0.2,0.2,0.4,0.4,0.4C6.5-20.8,6.7-21,6.7-21.2z"/>
	<path class="st0" d="M4.4-27.8c0-0.2-0.2-0.4-0.4-0.4S3.7-28,3.7-27.8c0,0.2,0.2,0.4,0.4,0.4S4.4-27.6,4.4-27.8z"/>
	<path class="st0" d="M-3.2-25.4c0-0.2-0.2-0.4-0.4-0.4s-0.4,0.2-0.4,0.4c0,0.2,0.2,0.4,0.4,0.4S-3.2-25.2-3.2-25.4z"/>
	<path class="st0" d="M6.7-15.1c0-0.2-0.2-0.4-0.4-0.4c-0.2,0-0.4,0.2-0.4,0.4c0,0.2,0.2,0.4,0.4,0.4C6.5-14.7,6.7-14.9,6.7-15.1z"
		/>
	<path class="st0" d="M9.9-9.5c0-0.2-0.2-0.4-0.4-0.4c-0.2,0-0.4,0.2-0.4,0.4c0,0.2,0.2,0.4,0.4,0.4C9.8-9.1,9.9-9.3,9.9-9.5z"/>
	<path class="st0" d="M5.2-13.4c0-0.2-0.2-0.4-0.4-0.4c-0.2,0-0.4,0.2-0.4,0.4c0,0.2,0.2,0.4,0.4,0.4C5-13,5.2-13.2,5.2-13.4z"/>
	<path class="st0" d="M5.5-19.2c0-0.2-0.2-0.4-0.4-0.4c-0.2,0-0.4,0.2-0.4,0.4c0,0.2,0.2,0.4,0.4,0.4C5.4-18.9,5.5-19,5.5-19.2z"/>
	<path class="st0" d="M2-23.1c0-0.2-0.2-0.4-0.4-0.4c-0.2,0-0.4,0.2-0.4,0.4c0,0.2,0.2,0.4,0.4,0.4C1.8-22.7,2-22.9,2-23.1z"/>
	<path class="st0" d="M-1.3-19.6c0-0.2-0.2-0.4-0.4-0.4C-1.9-20-2-19.8-2-19.6c0,0.2,0.2,0.4,0.4,0.4C-1.5-19.2-1.3-19.4-1.3-19.6z"
		/>
	<path class="st0" d="M-5.5-15.8c0-0.2-0.2-0.4-0.4-0.4c-0.2,0-0.4,0.2-0.4,0.4c0,0.2,0.2,0.4,0.4,0.4C-5.7-15.4-5.5-15.6-5.5-15.8z
		"/>
	<path class="st0" d="M-5.1-20.2c0-0.2-0.2-0.4-0.4-0.4c-0.2,0-0.4,0.2-0.4,0.4c0,0.2,0.2,0.4,0.4,0.4C-5.3-19.8-5.1-20-5.1-20.2z"
		/>
	<path class="st0" d="M-1.7-23.8c0-0.2-0.2-0.4-0.4-0.4c-0.2,0-0.4,0.2-0.4,0.4c0,0.2,0.2,0.4,0.4,0.4C-1.8-23.5-1.7-23.6-1.7-23.8z
		"/>
	<path class="st0" d="M2.7-26.1c0-0.2-0.2-0.4-0.4-0.4c-0.2,0-0.4,0.2-0.4,0.4c0,0.2,0.2,0.4,0.4,0.4C2.5-25.8,2.7-25.9,2.7-26.1z"
		/>
	<path class="st0" d="M4.4-21.2c0-0.2-0.2-0.4-0.4-0.4c-0.2,0-0.4,0.2-0.4,0.4c0,0.2,0.2,0.4,0.4,0.4C4.3-20.8,4.4-21,4.4-21.2z"/>
	<path class="st0" d="M2-18.3c0-0.2-0.2-0.4-0.4-0.4c-0.2,0-0.4,0.2-0.4,0.4c0,0.2,0.2,0.4,0.4,0.4C1.8-18,2-18.1,2-18.3z"/>
	<path class="st0" d="M2.3-15.8c0-0.2-0.2-0.4-0.4-0.4c-0.2,0-0.4,0.2-0.4,0.4c0,0.2,0.2,0.4,0.4,0.4C2.2-15.4,2.3-15.6,2.3-15.8z"
		/>
	<path class="st0" d="M-0.5-14.7c0-0.2-0.2-0.4-0.4-0.4c-0.2,0-0.4,0.2-0.4,0.4c0,0.2,0.2,0.4,0.4,0.4C-0.7-14.3-0.5-14.5-0.5-14.7z
		"/>
	<path class="st0" d="M5.9-7.2c0-0.2-0.2-0.4-0.4-0.4c-0.2,0-0.4,0.2-0.4,0.4c0,0.2,0.2,0.4,0.4,0.4C5.7-6.8,5.9-7,5.9-7.2z"/>
	<path class="st0" d="M-1.3-6.5c0-0.2-0.2-0.4-0.4-0.4C-1.9-6.8-2-6.7-2-6.5c0,0.2,0.2,0.4,0.4,0.4C-1.5-6.1-1.3-6.3-1.3-6.5z"/>
	<path class="st0" d="M2-3.5c0-0.2-0.2-0.4-0.4-0.4c-0.2,0-0.4,0.2-0.4,0.4c0,0.2,0.2,0.4,0.4,0.4C1.8-3.1,2-3.3,2-3.5z"/>
	<path class="st0" d="M6.3,1.5c0-0.2-0.2-0.4-0.4-0.4c-0.2,0-0.4,0.2-0.4,0.4c0,0.2,0.2,0.4,0.4,0.4C6.1,1.9,6.3,1.7,6.3,1.5z"/>
	<path class="st0" d="M-0.1,6.6c0-0.2-0.2-0.4-0.4-0.4c-0.2,0-0.4,0.2-0.4,0.4c0,0.2,0.2,0.4,0.4,0.4C-0.3,6.9-0.1,6.8-0.1,6.6z"/>
	<path class="st0" d="M-0.9-0.5c0-0.2-0.2-0.4-0.4-0.4c-0.2,0-0.4,0.2-0.4,0.4c0,0.2,0.2,0.4,0.4,0.4C-1-0.2-0.9-0.3-0.9-0.5z"/>
	<path class="st0" d="M-6.6-5.7c0-0.2-0.2-0.4-0.4-0.4c-0.2,0-0.4,0.2-0.4,0.4c0,0.2,0.2,0.4,0.4,0.4C-6.7-5.4-6.6-5.5-6.6-5.7z"/>
	<path class="st0" d="M0.6-5.7c0-0.2-0.2-0.4-0.4-0.4C0-6.1-0.1-5.9-0.1-5.7c0,0.2,0.2,0.4,0.4,0.4C0.5-5.4,0.6-5.5,0.6-5.7z"/>
	<path class="st0" d="M-0.1-10.2c0-0.2-0.2-0.4-0.4-0.4c-0.2,0-0.4,0.2-0.4,0.4c0,0.2,0.2,0.4,0.4,0.4C-0.3-9.8-0.1-10-0.1-10.2z"/>
	<path class="st0" d="M9.2-19.6C9.2-19.8,9-20,8.8-20c-0.2,0-0.4,0.2-0.4,0.4c0,0.2,0.2,0.4,0.4,0.4C9-19.2,9.2-19.4,9.2-19.6z"/>
	<path class="st0" d="M2.3-8.7c0-0.2-0.2-0.4-0.4-0.4c-0.2,0-0.4,0.2-0.4,0.4c0,0.2,0.2,0.4,0.4,0.4C2.2-8.3,2.3-8.5,2.3-8.7z"/>
	<path class="st0" d="M9.5-0.5c0-0.2-0.2-0.4-0.4-0.4C9-0.9,8.8-0.8,8.8-0.5c0,0.2,0.2,0.4,0.4,0.4C9.4-0.2,9.5-0.3,9.5-0.5z"/>
	<path class="st0" d="M4.8-11.5c0-0.2-0.2-0.4-0.4-0.4c-0.2,0-0.4,0.2-0.4,0.4c0,0.2,0.2,0.4,0.4,0.4C4.6-11.1,4.8-11.3,4.8-11.5z"
		/>
	<path class="st0" d="M-5.5,1.1c0-0.2-0.2-0.4-0.4-0.4c-0.2,0-0.4,0.2-0.4,0.4c0,0.2,0.2,0.4,0.4,0.4C-5.7,1.5-5.5,1.3-5.5,1.1z"/>
	<path class="st0" d="M2.3,10c0-0.2-0.2-0.4-0.4-0.4S1.6,9.8,1.6,10c0,0.2,0.2,0.4,0.4,0.4S2.3,10.2,2.3,10z"/>
	<path class="st0" d="M16,26.4c0-0.2-0.2-0.4-0.4-0.4s-0.4,0.2-0.4,0.4c0,0.2,0.2,0.4,0.4,0.4S16,26.6,16,26.4z"/>
	<path class="st0" d="M6.3,18.5c0-0.2-0.2-0.4-0.4-0.4c-0.2,0-0.4,0.2-0.4,0.4c0,0.2,0.2,0.4,0.4,0.4C6.1,18.9,6.3,18.7,6.3,18.5z"
		/>
	<path class="st0" d="M-4.8,10.4c0-0.2-0.2-0.4-0.4-0.4s-0.4,0.2-0.4,0.4c0,0.2,0.2,0.4,0.4,0.4S-4.8,10.6-4.8,10.4z"/>
	<path class="st0" d="M-15.3,18.1c0-0.2-0.2-0.4-0.4-0.4s-0.4,0.2-0.4,0.4c0,0.2,0.2,0.4,0.4,0.4S-15.3,18.3-15.3,18.1z"/>
	<path class="st0" d="M-7.3,6.2c0-0.2-0.2-0.4-0.4-0.4S-8.1,6-8.1,6.2c0,0.2,0.2,0.4,0.4,0.4S-7.3,6.4-7.3,6.2z"/>
	<path class="st0" d="M-1.7,12.9c0-0.2-0.2-0.4-0.4-0.4c-0.2,0-0.4,0.2-0.4,0.4c0,0.2,0.2,0.4,0.4,0.4C-1.8,13.3-1.7,13.1-1.7,12.9z
		"/>
	<path class="st0" d="M6.3,6.6c0-0.2-0.2-0.4-0.4-0.4S5.5,6.4,5.5,6.6c0,0.2,0.2,0.4,0.4,0.4S6.3,6.8,6.3,6.6z"/>
	<path class="st0" d="M-3.5-3.5c0-0.2-0.2-0.4-0.4-0.4c-0.2,0-0.4,0.2-0.4,0.4c0,0.2,0.2,0.4,0.4,0.4C-3.7-3.1-3.5-3.3-3.5-3.5z"/>
	<path class="st0" d="M-6.2-10.8c0-0.2-0.2-0.4-0.4-0.4C-6.8-11.1-7-11-7-10.8c0,0.2,0.2,0.4,0.4,0.4C-6.4-10.4-6.2-10.5-6.2-10.8z"
		/>
	<path class="st0" d="M-11.2-15.8c0-0.2-0.2-0.4-0.4-0.4s-0.4,0.2-0.4,0.4c0,0.2,0.2,0.4,0.4,0.4S-11.2-15.6-11.2-15.8z"/>
	<path class="st0" d="M-8.1-12.6c0-0.2-0.2-0.4-0.4-0.4s-0.4,0.2-0.4,0.4c0,0.2,0.2,0.4,0.4,0.4S-8.1-12.4-8.1-12.6z"/>
	<path class="st0" d="M-7,25.7c0-0.2-0.2-0.4-0.4-0.4c-0.2,0-0.4,0.2-0.4,0.4c0,0.2,0.2,0.4,0.4,0.4C-7.1,26.1-7,25.9-7,25.7z"/>
	<path class="st0" d="M5.5,32.2c0-0.2-0.2-0.4-0.4-0.4S4.8,32,4.8,32.2c0,0.2,0.2,0.4,0.4,0.4S5.5,32.4,5.5,32.2z"/>
	<path class="st0" d="M9.9,12.5c0-0.2-0.2-0.4-0.4-0.4c-0.2,0-0.4,0.2-0.4,0.4c0,0.2,0.2,0.4,0.4,0.4C9.8,12.9,9.9,12.7,9.9,12.5z"
		/>
	<path class="st0" d="M2.7-0.2c0-0.2-0.2-0.4-0.4-0.4C2.1-0.5,2-0.4,2-0.2C2,0,2.1,0.2,2.3,0.2C2.5,0.2,2.7,0,2.7-0.2z"/>
	<path class="st0" d="M4-6.1c0-0.2-0.2-0.4-0.4-0.4c-0.2,0-0.4,0.2-0.4,0.4c0,0.2,0.2,0.4,0.4,0.4C3.9-5.7,4-5.9,4-6.1z"/>
	<path class="st0" d="M7-11.1c0-0.2-0.2-0.4-0.4-0.4c-0.2,0-0.4,0.2-0.4,0.4c0,0.2,0.2,0.4,0.4,0.4C6.9-10.8,7-10.9,7-11.1z"/>
	<path class="st0" d="M0.6-27.8c0-0.2-0.2-0.4-0.4-0.4s-0.4,0.2-0.4,0.4c0,0.2,0.2,0.4,0.4,0.4S0.6-27.6,0.6-27.8z"/>
	<path class="st0" d="M-1.3-26.5c0-0.2-0.2-0.4-0.4-0.4c-0.2,0-0.4,0.2-0.4,0.4c0,0.2,0.2,0.4,0.4,0.4C-1.5-26.1-1.3-26.3-1.3-26.5z
		"/>
	<path class="st0" d="M-2.8-28.6c0-0.2-0.2-0.4-0.4-0.4c-0.2,0-0.4,0.2-0.4,0.4c0,0.2,0.2,0.4,0.4,0.4C-3-28.2-2.8-28.4-2.8-28.6z"
		/>
	<path class="st0" d="M-0.9-28.9c0-0.2-0.2-0.4-0.4-0.4s-0.4,0.2-0.4,0.4c0,0.2,0.2,0.4,0.4,0.4S-0.9-28.7-0.9-28.9z"/>
	<path class="st0" d="M1-32.2c0-0.2-0.2-0.4-0.4-0.4s-0.4,0.2-0.4,0.4c0,0.2,0.2,0.4,0.4,0.4S1-32,1-32.2z"/>
	<path class="st0" d="M2-29.3c0-0.2-0.2-0.4-0.4-0.4c-0.2,0-0.4,0.2-0.4,0.4c0,0.2,0.2,0.4,0.4,0.4C1.8-29,2-29.1,2-29.3z"/>
	<path class="st0" d="M5.2-25.8c0-0.2-0.2-0.4-0.4-0.4S4.4-26,4.4-25.8c0,0.2,0.2,0.4,0.4,0.4S5.2-25.5,5.2-25.8z"/>
	<path class="st0" d="M1.4-25c0-0.2-0.2-0.4-0.4-0.4c-0.2,0-0.4,0.2-0.4,0.4c0,0.2,0.2,0.4,0.4,0.4C1.2-24.6,1.4-24.8,1.4-25z"/>
	<path class="st0" d="M0.6-22.7c0-0.2-0.2-0.4-0.4-0.4s-0.4,0.2-0.4,0.4c0,0.2,0.2,0.4,0.4,0.4S0.6-22.5,0.6-22.7z"/>
	<path class="st0" d="M5.5-22.3c0-0.2-0.2-0.4-0.4-0.4s-0.4,0.2-0.4,0.4c0,0.2,0.2,0.4,0.4,0.4S5.5-22.1,5.5-22.3z"/>
	<path class="st0" d="M7.4-25.4c0-0.2-0.2-0.4-0.4-0.4s-0.4,0.2-0.4,0.4C6.7-25.2,6.8-25,7-25S7.4-25.2,7.4-25.4z"/>
	<path class="st0" d="M6.3-28.2c0-0.2-0.2-0.4-0.4-0.4s-0.4,0.2-0.4,0.4c0,0.2,0.2,0.4,0.4,0.4S6.3-28,6.3-28.2z"/>
	<path class="st0" d="M2.7-27.8c0-0.2-0.2-0.4-0.4-0.4C2.1-28.2,2-28,2-27.8c0,0.2,0.2,0.4,0.4,0.4C2.5-27.5,2.7-27.6,2.7-27.8z"/>
	<path class="st0" d="M-0.1-20.2c0-0.2-0.2-0.4-0.4-0.4s-0.4,0.2-0.4,0.4c0,0.2,0.2,0.4,0.4,0.4S-0.1-20-0.1-20.2z"/>
	<path class="st0" d="M-3.2-16.8c0-0.2-0.2-0.4-0.4-0.4s-0.4,0.2-0.4,0.4c0,0.2,0.2,0.4,0.4,0.4S-3.2-16.6-3.2-16.8z"/>
	<path class="st0" d="M3.1-13.7c0-0.2-0.2-0.4-0.4-0.4s-0.4,0.2-0.4,0.4c0,0.2,0.2,0.4,0.4,0.4S3.1-13.5,3.1-13.7z"/>
	<path class="st0" d="M2-12.2c0-0.2-0.2-0.4-0.4-0.4c-0.2,0-0.4,0.2-0.4,0.4c0,0.2,0.2,0.4,0.4,0.4C1.8-11.9,2-12,2-12.2z"/>
	<circle class="st0" cx="0.3" cy="-18" r="0.4"/>
	<circle class="st0" cx="-3.5" cy="-13.7" r="0.4"/>
</symbol>
<g id="BACKGROND" class="st1">
</g>
<g id="OBJECTS" class="st1">
</g>
<g id="DESIGNED_BY_FREEPIK">
	<g>
		<g>
			<g>
				<path class="st2" d="M52.4,446.3c-19.1,0-26.8-13.4-17-29.9l80.5-136.1c9.7-16.4,25.6-43.3,35.4-59.8l81-136.9
					c9.7-16.4,25.6-16.4,35.4,0l81,137c9.7,16.4,25.6,43.3,35.4,59.8l80.5,136.1c9.7,16.4,2.1,29.9-17,29.9H52.4z"/>
				<path class="st3" d="M52.4,446.3c-19.1,0-26.8-13.4-17-29.9l80.5-136.1c9.7-16.4,25.6-43.3,35.4-59.8l81-136.9
					c9.7-16.4,25.6-16.4,35.4,0l81,137c9.7,16.4,25.6,43.3,35.4,59.8l80.5,136.1c9.7,16.4,2.1,29.9-17,29.9H52.4z"/>
			</g>
		</g>
		<g>
			<defs>
				<path id="SVGID_1_" d="M196.6,122.1c19.7-33.3,52-33.3,71.7,0l43,72.7c16.4,27.7,43.2,73,59.6,100.8l72.6,122.8
					c2.8,4.7-0.6,10.6-6.1,10.6H291c-32.2,0-84.9,0-117.1,0H73.6c-32.2,0-45.1-22.7-28.7-50.4l49.1-83c16.4-27.7,43.2-73,59.6-100.8
					L196.6,122.1z"/>
			</defs>
			<clipPath id="SVGID_2_">
				<use xlink:href="#SVGID_1_"  style="overflow:visible;"/>
			</clipPath>
			<g class="st4">
				<g>
					<g>
						<path d="M205.6,173.7c0,0-6.8,70.4,70,85.3c0,0,18.1,3.2,8.4,16.1c0,0-12.6,12.1-37.9-2C246.2,273.1,184.3,240.1,205.6,173.7z
							"/>
						<path d="M284.1,275.1c2.1-2.8,2.9-5.1,2.8-7.1c-0.3,0.1-0.6,0.2-0.8,0.3c-3.5,1.5-6.8,2.8-10.5,3.4c-3.2,0.5-6.7,1-10,0.4
							c-3.8-0.7-7.3-1.9-10.9-3.5c-7.4-3.1-14.6-8-20.3-13.8c-3.3-3.4-6.3-7.1-9.7-10.5c-3.2-3.3-6.4-6.7-9.3-10.3
							c-5.1-6.4-8.7-13.7-11.6-21.3c-0.9-2.3-1.7-4.7-2.5-7.1c2.9,45,44.8,67.4,44.8,67.4C271.5,287.2,284.1,275.1,284.1,275.1z"/>
					</g>
					<path d="M890.7,498.6c-6-7.1-8.8-16-11.3-24.3c-3-9.6-1.8-18.7-1.8-29l-18.7,16.3c-4.5,14-15.6,27.3-14.4,42.7
						c0.8,9.8,3.7,18.5,7.6,27.5c4.6,10.6,5.8,22.1,5,33.6c-0.7,10.1-1.6,20.2-3,30.2c-1.3,9.1-0.7,19.4-5.6,27.6
						c-2.2,3.8-5.3,6.9-7.9,10.4c-2.7,3.7-3.8,8-5.9,12c-1.9,3.7-6.1,4.1-8.9,7.4c-1.7,2.1-5.1,6.6-6.3,10.1h43.3
						c1.4-1.2,2.9-2.5,4.4-3.1c-0.6-1.8-0.7-4.3-0.5-6.5c0.3-4.3,0.4-9.5,2.3-13.4c1.8-3.7,2.6-1.5,5.6-3.5c1.7-1.1,2-3.5,2.3-5.4
						c1-9.5,1.7-18.7,3.2-27.7c1.5-9.4,5.6-18.8,7.4-28.4c1.8-10,3.6-19.1,6.6-29c2.6-8.5,6.5-16.4,10.1-24.7
						C908,512.4,896.1,504.9,890.7,498.6z"/>
					<g>
						<path d="M918.8,632.1c0.5,0.3,1,0.6,1.6,0.7C919.8,632.6,919.3,632.4,918.8,632.1z"/>
						<path d="M953.3,578.5c-2-4.5-6.4-5.8-9.8-8.8c-1.3-1.2-2.3-2.6-3.1-4.2c0,0,0,0,0,0c-1.1-2.2-1.2-4.6-1.6-7
							c-0.4-2.4,0.1-4.9,0.4-7.4c0.4-2.7,0.6-5.4-0.3-7.5c-0.1,0.3-0.2,0.5-0.3,0.8c-0.1-0.3-0.3-0.6-0.5-0.8
							c-1-1.6-2.4-3.5-2.9-5.3c-0.6-2.3-0.5-5.1-0.5-7.6c0.2,0.9,0.7,1.8,1.1,2.6c0.6,1.1,1.3,2.4,2.1,3.4c1.9,2.2,3.1,4.2,3.4,7.1
							c0.4,3-0.4,5.7-0.6,8.6c-0.2,2.5-0.2,5,0.2,7.5c0.4,2.3,1.1,5.3,2.7,7.4c-1.8-8.4,3.7-16.5,1.4-24.7
							c-2.3-8.1-8.3-14.1-8.3-22.9c0-9.3,0.2-18.9,2.4-27.8c1.2-4.7,3.9-9.4,3.6-14.5c-0.3-4.8-1.2-8.5-3.5-12.7
							c-2.1-3.8-4.2-6.8-3.8-11.4c0.4-5,1.7-9.6,2.5-14.5c0.8-5,0.8-9.9,1.2-15.1c0.4-5,1.9-9.9,1.8-15.1
							c-0.2-20.6,0.5-41.1-1.2-61.6c-1.6-19.9-8.4-37.8-21.8-53.1c-5.9-6.8-13.6-13.4-22.3-16.1c-4.2-1.3-8.1-1.7-12.2-3.6
							c-4.1-1.9-7.9-4.1-11.9-6.2l2.4,10.3c9.4,4.9,18.1,12.6,25.3,20.4c5.7,6.1,11.2,10.9,15.9,18.3c11.4,18.2,13.6,42.5,11.9,63.4
							c-0.8,9.9-0.4,20.3-1.2,30.2c-0.4,5.1-1.2,9.1-2.4,13.8c-1.1,4.3-0.7,9-1.7,13.3c-1.2,4.7-2.7,9.1-3.1,13.9
							c-0.4,5.1,1.6,10.7-3,14c-3.6,2.6-7.3,3.2-10.1,7.2c-2.8,4-2.2,8.7-3.9,13.1c-1.7,4.4-6.1,7.1-8.3,11.5
							c-2.3,4.6-2.4,8.7-2.4,13.9c0,9.8-3.3,17.9,0,27.6c-0.1-8.3,5.3-14.2,5.9-22.3c0.4-5.6-0.7-21.5,8.4-21.6
							c-9.2,8.4-0.1,28.1-2.8,38.7c-1.7,6.6-3.6,11.5-3.6,18.7c0,6.5,2.2,11.4,3,17.3c0-8.8-1.4-17.4,3.1-25.2
							c-2.6,9.5-0.4,21.4,4.1,29.2c2.8,4.8,6.9,9.7,4.8,15.6c-1,2.6-2.8,5.1-3.5,7.7c-0.8,3.1-0.7,7.1,0.3,10.1
							c0.5,1.5,1.1,3.2,1.9,4.9c-0.4,1.9-0.7,3.8-0.7,5.6c0,5.4,1.9,12,7,14.7c-3.4-2.3-4-8.6-4.3-12c-0.1-1.4-0.2-3.1,0-4.7
							c1.1,1.6,2.4,2.9,4.1,3.5c-1-2-2.1-4.4-3.1-6.9c1.1-2,2.7-3.9,4.3-5.5c2.8-2.9,5.2-6,6.6-9.5c0.2,0.3,0.4,0.5,0.6,0.8
							c0.8,2.2,1.3,4.9,0.9,7.2c-0.4,2.4-2.2,4.5-3.3,6.6c-1.1,2.1-1.9,4.6-1.9,6.9c0,2.4,1.8,4.3,3.2,6.1c1.5,1.9,2.3,3.8,2.2,6.3
							c-0.1,2.7-2.3,5.2-2.8,7.9c-0.8,4.3,0.7,6.9,3.6,9.8c-1.5-2.2-3-3.6-2.7-6.5c0.2-2.3,1.5-4,2.6-5.8c2.8-4.2,2.8-8.2,0.3-12.8
							c-1.2-2.2-2-3.5-2-6.1c0-2.7,0.8-4.7,2-7c0.9-1.8,1.6-3.5,2.1-5.2c0.4,2,1.9,2.7,3.5,4.1c1.9,1.7,1.8,3.1,0.4,5.1
							c-1.6,2.3-2.8,3.3-2.7,6.3c0.1,6.7,5.2,9.7,10.2,12.9c-4.3-4.4-7.4-9.3-5.6-15.9c0.7-2.7,2.5-4.1,3.8-6.4
							c1.4-2.5,0.3-4.8-0.2-7.2c-1-5.5,3.9-8,4.8-12.9c0.9-4.8-0.8-10.7-3.6-14.6c-2.9-4.2-7.1-7.6-9.6-12c-0.8-1.4-1.6-2.8-2.1-4.3
							c-0.3-2.1-0.5-4.3-0.5-6.9c0-6.4,0.1-12.7,0-19.1c3.8,5.9,1.4,14.2,3.8,20.8c0.8,2,1.7,3.8,2.9,5.4c0.6,3.7,2.1,7.2,4.9,10.1
							c3.4,3.6,7.6,5.8,9.1,10.9c1.3,4.7-0.3,10.7-2.1,15.1c-1.5,3.7-2.9,8.5-1.1,12.4c-0.1-0.5-0.1-1-0.1-1.6c0-2.2,0.4-4,1.3-6
							c1.5-3.5,4-6.2,5.4-9.7C955,587.6,955.2,582.7,953.3,578.5z M922,591.2c-0.4,2.4-1.3,3.5-2.6,5.5c-1.3,1.9-2.2,4.1-3.3,6
							c-0.8,1.4-1.6,2.9-2.2,4.5c-0.6-2.6-0.8-5.1-0.3-7.4c0.6-2.6,2.6-5.3,3.4-7.8c1-2.8,0.7-6.9,0.5-10c0-0.6-0.1-1.2-0.2-1.7
							c0,0,0,0,0,0c1.1,1.4,2.1,2.6,3,3.7c0.6,1.7,1.3,3.3,1.9,5C922.1,589.7,922.1,590.4,922,591.2z M939.3,584.5
							c0.3,4.3-1,8.1-3.4,11.5c0.6-2.5,1.2-5,1.4-7.6c0.5-5.3-1.4-10.3-3.3-15c0.3,0.3,0.7,0.6,1,0.8
							C937.7,576.9,939.1,581,939.3,584.5z"/>
						<path d="M927.1,380.2c-0.6,6.7-0.6,13.6-0.8,20.5c15.8-33.6,5.3-58.2,5.3-58.2l-5.5,5.3C927.8,358.8,928,369.9,927.1,380.2z"
							/>
					</g>
					<path d="M918.8,632.1c0.5,0.3,1,0.6,1.6,0.7C919.8,632.6,919.3,632.4,918.8,632.1z"/>
					<path d="M471.9,664.8c0.5-1.6,1.1-3.3,1.5-4.9c0.5-2.1,1.2-3.9,2.4-5.9c0.7-1.3,1.5-2.7,2.8-3.6c1.3-0.9,2.9-1.1,4.4-1.6
						c1.1-0.4,2.7-1.3,3.2-2.5c0.5-1.4-0.1-3.5-0.4-4.8c-0.5-3-1.7-5.9-2.2-8.9c-0.1-0.6-0.2-1.2-0.2-1.8
						c-1.1-4.8-0.4-10.3-0.4-15.1c0-6.6,1.6-12.9,2.4-19.3c0.4-3.2,0.1-6.3,0.4-9.7c0.3-3.5,1.4-6.7,2.3-10.1
						c1.2-4.3,2.4-8.6,3.8-12.9c1.3-3.8,3.5-8.4,1.8-12.5c-1.5-3.7-4.7-7.2-7.9-9.3c-4-2.7-8.6-6-13.3-7.3c-3.4-0.9-6.7,0.1-10,0
						l-16.9,4c-0.8,1.7-0.2,6.9,0,9.3c0.3,3.4,1.3,6.6,1.6,10.1c0.3,3.4-0.2,6.7,0.9,10c1.1,3.2,2.8,6.5,4.7,9.4
						c1.8,2.7,3.3,5,4.3,8.1c1.2,3.6,1,7,1.3,10.8c0.5,7.2,0.4,14.8,0.4,22.1c0,5.1,0.8,9.9,1.5,14.6c0.8,5.3,0.8,8.9-3.1,12.8
						c-6.8,6.7-17.2,10.9-21.7,19.6c6.8,0.7,13.3-1.2,20.1-0.6c3.3,0.3,6.7,1.3,10.1,1.5C468.5,666.8,470.3,666.5,471.9,664.8z"/>
					<path d="M913.7,301.8c-3-4.3-5.8-9.6-9.5-13.4c-3.8-3.9-8.6-6.5-12.7-10c-7.1-6-14.9-11.8-24.1-13.5c-9.7-1.8-19.6-0.2-29.6-1
						c-9.3-0.8-17.7-3.7-27.7-3.7c-9.8,0-19.8,0.8-29,2.4c-4.7,0.8-9.7,1-14.5,1.8c-2.2,0.4-4.3,0.8-6.4,1.1
						c-7.9-0.4-15.8-0.7-23.8-0.7c-15.6,0.1-31.6-1.6-47.3-1.6c-16.9,0-33.7,0.4-50.1-2.4c-29.1-5.1-59.3-8.2-88.7-12.2
						c-27.8-3.8-54.8-9.4-82.7-11.1c-12.7-0.8-25.4-2.6-37-6.2c-11.7-3.7-23.6-8.9-35.4-9.9c-13.9-1.1-26.5,1.4-39.4,4.6
						c-11,2.7-21.9,3.9-33.5,4.1c-3.6-0.3-7.2-0.9-10.8-1.5c-10.8-2.1-19.1-10.6-30.5-11.3c-10.4-0.6-21.7,9.5-29.9,15.2
						c-9.6,6.6-17.7,15.5-26.5,23.4c-4.1,3.6-8.1,7.7-12,11.6c-5,4.9-6.3,10.8-9.4,16.8c-2.6,5.1-5.4,10-9.3,14.2
						c-11.3,12.6-22.3,26.2-33,39.4c-0.8,1-1.5,2.2-2,3.4c-1,1.3-2.1,2.6-3.1,3.9c-4.4,5.8-0.7,12.4,2.5,17.8
						c2.7,4.7,6.3,10.1,10.4,13.8c5.3,4.8,11,2.8,17,1.1c6.4-1.8,12-2.8,18.9-2.8c3.1,0,6.5,0.6,9.6,1.3c0.8,0.2,1.9,0.6,3,0.8
						c5.1,2.5,9,6,14.3,7.8c11.3,3.8,23.6,6,34.9,11.4c5.8,2.8,12.6,5.8,18.6,7.5c6.3,1.8,13.5,0.9,20.1,1
						c11.2,0.2,21.4,15.1,28.3,23.3c8.3,9.7,14.5,21.1,20.6,32.2c6.1,11.2,8.6,23.8,19.3,31.6c9.6,7,17.7,14.3,26.1,22.9
						c8.5,8.8,15.9,19.2,25,27.4c2.2,1.9,4.4,3.2,6.8,4c3.3,2.2,7.2,3.8,10.7,4.3c3,0.5,6,0.5,9,0.2c2.2,0.2,4.5,0.4,7.1,0.6
						c5.9,0.5,12,0.2,17.1,3.8c4.9,3.5,7.6,7.9,10.3,13.1c5.5,10.6,10.7,19.6,13.5,30.8c3,12.1,1.2,25.5,0.4,37.8
						c-0.3,4.3-0.1,9.2-2.8,12.7c-2.4,3.2-6.9,5.2-9.7,8c-6,6-13.7,11.9-17.4,19.2c6.5,0.7,13.4,0.2,20,0.2c5.6,0,14.6,1.7,19.4-1.4
						c4.5-2.9,4.6-8.9,9-12.1c5.4-3.9,9.4-3.1,11.1-10.6c2.8-12.3-6.5-23.4-6.5-36.2c0.1-13.6-0.9-27.4,3.4-40.2
						c5.3-15.8,6.4-29.8,7.8-46.8c0.7-1.2,1.6-2.9,2.2-4.1c3.8-3,7.8-5.6,12.3-6.2c6.5-1,13.5,0.6,20.1,0c6.3-0.6,12.7-0.8,19.3-0.8
						c13.1,0.1,26.3-2.5,39.2-4.2c13.1-1.7,26.6-4.4,39.6-7.7c13.3-3.4,26.8-4.8,40.2-9c13.4-4.3,28.4-9.6,41.9-12
						c12.1-2.2,23.9-6.2,35.3-9.7c2.1-0.6,4.3-1.3,6.4-2c12.2,13.3,16.3,31.9,23.2,48.4c0.2,0.5,0.5,1,0.7,1.4c0,0.1,0,0.2,0.1,0.3
						c0.1,0.2,0.2,0.4,0.3,0.6c2.2,4.5,4.9,8.9,7,13.3c0.1,0.2,0.2,0.4,0.3,0.6c0.1,0.3,0.2,0.5,0.4,0.8c1.5,3.5,2.4,6.9,3,10.6
						c0.6,3.5,1,8,0.5,11.6c-0.9,6-3.8,12-5.3,17.6c-2.4,9.1-4.2,18.3-6.4,27.4c-0.7,3-1.8,5.9-2.9,8.7
						c-9.5,23.4-10.7,33.9-24.4,42.4c-3.8,2.3-6.8,5.2-9.3,8.8c-1.4,1.9-2.6,3.9-3.9,5.7c0,0,0,0-0.1,0.1h40.9
						c0.5-0.6,1-1.3,1.7-2.2c2.2-3,4.2-2.8,7-4.5c4.3-2.7,3.7-10.8,5.1-15.4c2.5-8.1,5.6-16.1,9.1-24.1c3.8-8.8,6.2-18.4,10.4-27
						c4.2-8.8,5.7-18.3,10.7-26.7c2.4-4,4.8-8,7.3-12.1c0.5-0.8,1.1-1.6,1.6-2.5c2.6-2.1,4.9-4.2,5.9-7.5c1.3-4.4,0.3-9.6-0.7-14
						c-2.2-9.9-6.2-17-6-27.8c0.2-9.2,2.5-19.4,6.6-27.8c4.7-9.4,10.8-18.2,15.2-27.8c5-10.8,11.5-21.6,17.5-31.9
						c2.9-5,5.1-10.5,7.9-15.8c2.7-5.3,6.3-9.8,9.1-15.1c4.5-8.8,7.8-17.9,9.5-27.8C935.4,340.9,925.8,318.9,913.7,301.8z"/>
					<path d="M285.4,233.2c0,0,6.8-6.5,20.5-2.3c0,0,23.5,4.9,10,22.1C316,252.9,283.6,252.1,285.4,233.2z"/>
					<path d="M299.1,241.2l5.1-5.1c0,0-6.8-2.3-11.6-6.2c-4.8,1-7.2,3.3-7.2,3.3c-0.3,2.7,0.2,5.1,1.2,7.1c3.6,1.1,7.7,2.3,7.7,2.3
						L299.1,241.2z"/>
					<g>
						<path d="M237.5,151.5c0,0-6.8,70.4,70,85.3c0,0,18.1,3.2,8.5,16.1c0,0-12.6,12.1-37.9-2C278.1,250.9,216.2,217.9,237.5,151.5z
							"/>
						<path d="M316,252.9c2.1-2.8,2.9-5.2,2.8-7.1c-0.3,0.1-0.6,0.2-0.8,0.3c-3.5,1.5-6.8,2.8-10.5,3.4c-3.2,0.5-6.7,1-10,0.4
							c-3.8-0.7-7.3-1.9-10.9-3.5c-7.4-3.1-14.6-8-20.3-13.8c-3.3-3.4-6.3-7.1-9.7-10.5c-3.2-3.2-6.4-6.7-9.3-10.3
							c-5.1-6.4-8.7-13.7-11.6-21.3c-0.9-2.3-1.7-4.7-2.5-7.1c2.9,45,44.8,67.4,44.8,67.4C303.4,265,316,252.9,316,252.9z"/>
					</g>
					<path d="M540.5,437.6c11.1,17.5,0,45.9,0,45.9c2.9,17.6-2.7,35.6-5.4,43.1c4.1-3.2,8.3-6.2,13.1-6.9c1.8-0.3,3.6-0.3,5.4-0.3
						c5.4-26.1-1.2-35.5-1.2-35.5C562,454.1,540.5,437.6,540.5,437.6z"/>
					<path d="M790.3,474.3c0,0-23.3-26.6-9.3-78.1c0,0-23.2,41.8-2,81.6c1.6-0.5,3.2-1,4.8-1.5C786,475.6,788.1,475,790.3,474.3z"/>
					<path d="M443.2,480.1c-0.4-4.8-0.5-14.4-3.7-18.3c-2.5-3-7.4-5.8-10.6-8c-6.9-5.1-8.2-4.6-13.2-11.8c-6-8.8-0.6-21.6-9.5-29
						c-6-5-20.8-6.9-21.7-15.2c-1.1-9.9-0.1-19.6-2.4-29c-2.4-9.7-6.8-18.4-10.9-27.5c-1.4,4.1-0.6,8.9-1.8,13.1
						c-1.1,4.1-2.9,8.1-4.3,12c-1.4,4-2.8,8.1-4.4,12.1c-1,2.6-3.6,6.1-4.4,9.2c1.3-9.3,3.6-18.8,1.5-28.5
						c-2.2-10.1-6.2-19.7-9.7-29.4c2.5,12.7-1.5,25.4-5.9,37.2c-3.8,10.2-8.3,20.5-16.5,28.2c2.6-12.6,2.1-25.1,0-37.8
						c-1.1-6.9-2.5-13.8-4.2-20.5c-1.6-6.3-4.9-12.3-6.1-18.5c2.3,10.1,1.5,22.1,0,32.4c-1.4,9.4-3.4,19-6.8,27.6
						c-1.2,3-10.8,22-16.9,16c-1.8-1.7-0.6-11.4-1-14.1c-0.6-3.8-0.8-8.6-3.5-11.4c-1.9,8-6.4,17-12.8,22.9
						c-1.9,1.7-4.3,3.5-6.8,4.9c5.6,2.7,11.2,6.1,17.1,7.8c6.3,1.8,13.5,0.9,20.1,1c11.2,0.2,21.4,15.1,28.3,23.3
						c8.3,9.7,14.5,21.1,20.6,32.2c6.1,11.2,8.6,23.8,19.3,31.6c9.6,7,17.7,14.3,26.1,22.9c8.5,8.8,15.9,19.2,25,27.4
						c2.2,1.9,4.4,3.2,6.8,4c3.3,2.2,7.2,3.8,10.7,4.3c2.5,0.4,5,0.4,7.6,0.3c0.1-2.7-1.3-5.6-1.5-8.8
						C446.3,521.6,445.2,501.2,443.2,480.1z"/>
					<path d="M478.5,558.7c-0.1-0.1-12.8-15.7-13.6-36.2c0,0-3.7,10-2.9,18.1c0,0-11.3-15.7-8.5-39.4c0,0-10,27.8-10.4,50.1
						c2.5,0.3,5.1,0.3,7.7,0c2.2,0.2,4.5,0.4,7.1,0.6c5.9,0.5,12,0.2,17.1,3.8C476.4,556.6,477.5,557.6,478.5,558.7z"/>
					<path d="M333.7,246.9c0,0,12.1,30.2,11.7,60.3C345.3,307.2,356.2,272.2,333.7,246.9z"/>
					<path d="M328.9,257.7c0,0,1.2,35.3-5.6,49.5C323.2,307.2,337.3,289.9,328.9,257.7z"/>
					<path d="M257.2,277c0,0-11.3-17.7-27.4,0c0,0,0-12.1,8-14.9c0,0-28.6,9.3-15.3,38.2c0,0,8,17.7,31.8,13.3
						c0,0-12.1-0.8-18.9-11.7c0,0,13.7,13.3,32.4-3.6c0,0-12.6,6.2-20.3,0C247.6,298.4,264.4,294.4,257.2,277z"/>
					<path d="M227.1,288.3c0,0,11.8-28.8,30.1-11.3c0,0,2.1,16.3-16.5,19.3C240.7,296.3,231.6,298.6,227.1,288.3z"/>
					<path d="M254.4,282.5"/>
					<path d="M254.4,282.5c0,0-5.8,11.2-20.8,7.4C233.7,289.9,236.5,267.6,254.4,282.5"/>
					<path d="M230.3,383.3c-2-1-4.2-2.1-6-3.4c-3.3-2.4-6.2-5-9.7-7.2c-2.6-1.7-5.9-3.4-9-3.7c-3.4-0.3-7,0.5-10.3-0.3
						c-1.1-0.3-2.1-0.9-3.3-0.9c-1.2,0-2.2,0.4-3.3,0.6c-2.3,0.4-5.1,0.3-7.3-0.5c-2-0.7-3.6-2-4.8-3.9c-1.1-1.6-1.8-4-3.5-5.2
						c-1.1-0.7-2.6-0.8-3.9-0.6c-1,0.2-1.8,1.1-2.7,1.2c-1.9,0.3-3.6-1.5-4.9-2.7c-0.7-0.7-1.5-1.5-2.1-2.3
						c-0.6-0.7-0.9-2.3-1.7-2.9c-1.3-1-2.6-0.2-4,0.4c0.1,4,2.4,8.1,4.5,11.7c2.7,4.7,6.3,10.1,10.4,13.8c5.3,4.8,11,2.8,17,1.1
						c6.4-1.8,12-2.8,18.9-2.8c3.1,0,6.5,0.6,9.6,1.3c0.8,0.2,1.9,0.6,3,0.8c5,2.4,10,5,15.2,6.8C231.7,384.1,231,383.7,230.3,383.3
						z"/>
					<path d="M804.9,670.2c-1.5-3-2.2-5.8-4.4-8.4c-3.2-3.9-7.4-4.7-11.7-5.9c-0.7,0.5-1.4,1-2.2,1.5c-3.8,2.3-6.8,5.2-9.3,8.8
						c-1.4,1.9-2.6,3.9-3.9,5.7c0,0,0,0-0.1,0.1h32.6C805.5,671.3,805.2,670.8,804.9,670.2z"/>
					<path d="M493.8,677.6c-0.3-0.3-0.6-0.7-1-1.1c-2.6-3.2-3.3-7-6-10c-1.2-1.4-2.4-2.4-3.9-3.2c-0.4-0.2-0.8-0.3-1.3-0.4
						c-4.8,4.4-9.7,9-12.4,14.4c6.5,0.7,13.4,0.2,20,0.2C490.7,677.4,492.2,677.5,493.8,677.6z"/>
					<path class="st2" d="M244.9,284c0.3,0.8-1,1.8-2.9,2.5c-1.9,0.8-3.7,1.1-4.1,0.3c-0.3-0.8,1.4-1.4,2.9-2.9
						C243,281.7,244.6,283.2,244.9,284z"/>
				</g>
			</g>
		</g>
	</g>
</g>
</svg>
