<?xml version="1.0" encoding="utf-8"?>
<!-- Generator: Adobe Illustrator 25.0.0, SVG Export Plug-In . SVG Version: 6.00 Build 0)  -->
<svg version="1.1" id="Capa_1" xmlns="http://www.w3.org/2000/svg" xmlns:xlink="http://www.w3.org/1999/xlink" x="0px" y="0px"
	 viewBox="0 0 209.8 209.8" style="enable-background:new 0 0 209.8 209.8;" xml:space="preserve">
<style type="text/css">
	.st0{fill:#FFFFFF;}
</style>
<path class="st0" d="M196.1,63.5c2.4-23.4-14.5-35.9-23.7-39.3c-2.1-0.8-4.5,0-5.6,1.8s-0.8,4.1,0.9,5.3c0.5,0.8,2.7,5,2.1,16.7
	c-0.2,2.1-0.5,7.8-12.2,7.8c-1.4,0-2.4-0.2-3.5-0.2c-0.9-1.8-2.3-4.1-4.4-7.2c-3.5-5.3-8.9-8.1-15.8-8.1c-3.9,0-8.4,1.1-12.2,2.7
	c-4.1,1.8-13.6,3-17.3,3.3c-3.8-0.3-13.3-1.5-17.3-3.3c-3.8-1.8-8.3-2.7-12.2-2.7c-6.8,0-12.2,2.9-15.8,8.1
	c-2.1,3.2-3.5,5.4-4.4,7.2c-0.9,0.2-2.1,0.2-3.5,0.2c-11.8,0-12.1-5.7-12.2-7.8c-0.6-11.6,1.7-16,2.1-16.7c1.7-1.2,2-3.5,0.9-5.3
	c-1.1-2-3.5-2.6-5.6-1.8C28.1,27.5,11.3,40,13.7,63.5c1.7,16.3,8.9,22.7,15.1,25.3c-5,4.8-10.4,11.1-10.5,16.7c-0.2,3.8,0.9,6.9,3,9
	c2.3,2.3,5.4,3.3,9.8,3.3c2,0,4.2-0.2,6.9-0.8c6.2-1.1,12.2-2.6,16.1-3.6c2,5.4,5.9,15.7,9.2,22.6c3.5,7.4,5.3,14.3,5.7,16.4
	c-0.6,4.1-2.3,18.2,5.6,26.1c6.2,6.2,18.2,7.4,27.4,7.4c1.5,0,2.7,0,3.2,0s1.7,0,3.2,0c9,0,21.2-1.4,27.4-7.4
	c7.8-7.8,6.2-22,5.6-26.1c0.5-2.3,2.3-9.2,5.7-16.4c3.3-6.9,7.2-17,9.2-22.6c3.8,1.1,9.9,2.6,16.1,3.6c2.7,0.5,5,0.8,6.9,0.8
	c4.4,0,7.5-1.1,9.8-3.3c2.1-2.1,3-5.1,3-9c-0.2-5.6-5.6-12.1-10.5-16.7C187.2,86.1,194.5,79.6,196.1,63.5z M64.9,102.2
	c0-3.6,1.7-6.9,4.5-9.2c1.7-1.4,3.9-1.2,5.6,0.2l10.8,9.5c1.7,1.4,2,3.8,0.9,5.6c-2.1,3.6-6,5.7-10.1,5.7
	C70.2,113.8,64.9,108.7,64.9,102.2z M87,174.1c-0.8,0.3-1.7,0.5-2.4,0.5c-4.1,0-7.5-3.5-8.7-8.6c-1.4-5.9,0.8-11.4,5-13.1
	c0.8-0.3,1.7-0.5,2.4-0.5c4.1,0,7.5,3.5,8.7,8.6C93.4,167,91.3,172.5,87,174.1z M134.1,165.9c-1.2,5.1-4.7,8.6-8.7,8.6l0,0
	c-0.9,0-1.7-0.2-2.4-0.5c-4.2-1.7-6.3-7.2-5-13.1c1.2-5.1,4.7-8.6,8.7-8.6c0.9,0,1.7,0.2,2.4,0.5C133.3,154.5,135.4,160,134.1,165.9
	z M133.1,113.8c-4.1,0-8-2.3-10.1-5.7c-1.1-1.8-0.8-4.1,0.9-5.6l10.8-9.5c1.7-1.4,3.9-1.5,5.6-0.2c2.9,2.3,4.5,5.6,4.5,9.2
	C144.9,108.7,139.6,113.8,133.1,113.8z"/>
</svg>
