<?xml version="1.0" encoding="utf-8"?>
<!-- Generator: Adobe Illustrator 25.0.0, SVG Export Plug-In . SVG Version: 6.00 Build 0)  -->
<svg version="1.1" id="Layer_1" xmlns="http://www.w3.org/2000/svg" xmlns:xlink="http://www.w3.org/1999/xlink" x="0px" y="0px"
	 viewBox="0 0 1920 1080" style="enable-background:new 0 0 1920 1080;" xml:space="preserve">
<style type="text/css">
	.st0{fill:#DA7437;}
	.st1{fill:#FFFFFF;}
	.st2{opacity:0.2;fill:#393C54;enable-background:new    ;}
	.st3{opacity:0.2;fill:#FFFFFF;enable-background:new    ;}
</style>
<g>
	<g>
		<circle class="st0" cx="456.5" cy="699.3" r="134.2"/>
		<path class="st1" d="M459.4,587.3c-160.5,0-290.9-148.1-290.9-330.8c0-5.7,0-11.4,0-17.1c0.5-8-5.7-14.9-13.7-15.3
			c-5.5-0.3-10.6,2.5-13.4,7.2c-34,62.4-51.6,132.3-51.1,203.4c0,210.9,150.2,382.1,335.5,382.1S602,587.3,459.4,587.3z"/>
		<path class="st2" d="M548.9,635.3c-15.4,49.1-55.9,107.3-159.5,125.5c-85.4,15.2-154.8-19.4-205.6-62
			c59.1,73.4,147.8,116.7,242.1,118C556.5,816.8,590.8,702.5,548.9,635.3z"/>
		<path class="st3" d="M165.7,257.4l3.1-4.4c0-4.6,0-9.2,0-13.6c0.5-8-5.7-14.9-13.7-15.3c-5.5-0.3-10.6,2.5-13.4,7.2
			C107.6,293.6,90,363.6,90.4,434.6c0,0,0,0,0,0.7c6.9-34.1,17.2-67.4,30.5-99.6C134,308.7,149,282.5,165.7,257.4z"/>
	</g>
	<g>
		<g>
			<circle class="st0" cx="1463" cy="699.3" r="134.2"/>
			<path class="st1" d="M1460.1,587.3c160.5,0,290.9-148.1,290.9-330.8c0-5.7,0-11.4,0-17.1c-0.5-8,5.7-14.9,13.7-15.3
				c5.5-0.3,10.6,2.5,13.4,7.2c34.2,62.3,51.9,132.3,51.6,203.4c0,210.9-150.2,381.7-335.6,381.7S1317.6,587.3,1460.1,587.3z"/>
			<path class="st2" d="M1503.6,772c-80.3,0-128.8-37.4-149.3-84c-4,61.6,39,128.8,139.4,128.8c115.8,0,217.8-67.1,278.1-167.8
				C1703.9,726.2,1606.4,771,1503.6,772z"/>
		</g>
		<path class="st3" d="M1765.1,380.5c17.6-34,28.4-71.1,31.7-109.3c-5.6-13.7-12-27-19.1-39.9c-4.1-6.9-13-9.3-19.9-5.2
			c-4.7,2.8-7.5,7.9-7.2,13.4c0,5.7,0,11.4,0,17.1c0.3,67.1-18,132.9-53,190.2C1724.7,430,1747.8,407.4,1765.1,380.5z"/>
	</g>
</g>
</svg>
